<?xml version="1.0" standalone="no"?>
<!DOCTYPE svg PUBLIC "-//W3C//DTD SVG 20010904//EN"
 "http://www.w3.org/TR/2001/REC-SVG-20010904/DTD/svg10.dtd">
<svg version="1.0" xmlns="http://www.w3.org/2000/svg"
 width="1440.000000pt" height="1440.000000pt" viewBox="0 0 1440.000000 1440.000000"
 preserveAspectRatio="xMidYMid meet">

<g transform="translate(0.000000,1440.000000) scale(0.100000,-0.100000)"
fill="#000000" stroke="none">
<path d="M6975 13902 c-2 -2 -44 -6 -92 -8 -48 -1 -135 -6 -193 -10 -58 -4
-116 -7 -130 -6 -14 1 -38 -3 -55 -8 -16 -5 -59 -12 -95 -14 -36 -3 -101 -10
-145 -16 -44 -6 -89 -12 -100 -13 -11 -1 -26 -6 -33 -10 -7 -5 -20 -6 -29 -3
-8 4 -22 1 -29 -5 -8 -6 -20 -9 -29 -6 -8 4 -17 2 -20 -4 -4 -5 -18 -9 -33 -8
-27 2 -90 -8 -102 -16 -4 -2 -22 -7 -41 -10 -19 -3 -43 -9 -54 -12 -11 -4 -31
-7 -45 -8 -14 -1 -31 -4 -37 -8 -6 -4 -27 -8 -47 -9 -20 -2 -36 -7 -36 -12 0
-4 -7 -6 -15 -3 -8 4 -17 2 -20 -4 -4 -5 -12 -9 -18 -7 -7 1 -37 -6 -68 -15
-31 -9 -64 -18 -75 -20 -10 -2 -26 -7 -34 -10 -15 -6 -125 -38 -125 -37 0 2
-30 -8 -80 -26 -27 -10 -57 -18 -65 -19 -8 -1 -28 -7 -43 -14 -16 -6 -37 -11
-48 -11 -10 0 -19 -4 -19 -10 0 -5 -9 -10 -19 -10 -11 0 -22 -4 -25 -8 -3 -5
-31 -14 -63 -21 -31 -8 -64 -17 -73 -21 -8 -5 -22 -11 -30 -14 -8 -3 -22 -10
-30 -15 -22 -14 -223 -91 -236 -91 -6 0 -17 -7 -24 -15 -7 -8 -23 -15 -36 -15
-13 0 -24 -4 -24 -8 0 -10 -112 -62 -133 -62 -9 0 -19 -5 -23 -11 -3 -6 -23
-18 -43 -26 -20 -8 -48 -24 -63 -34 -14 -11 -32 -19 -40 -19 -7 0 -33 -14 -58
-30 -25 -16 -50 -30 -57 -30 -7 0 -44 -20 -82 -45 -38 -25 -78 -45 -89 -45
-11 0 -22 -3 -24 -8 -4 -10 -375 -242 -387 -242 -6 0 -15 -8 -20 -19 -6 -10
-43 -38 -83 -62 -40 -24 -76 -49 -81 -55 -4 -7 -30 -26 -57 -43 -28 -17 -50
-35 -50 -39 0 -5 -20 -19 -45 -31 -25 -12 -43 -27 -40 -32 4 -5 2 -9 -2 -9 -8
0 -54 -36 -138 -105 -16 -14 -35 -25 -42 -25 -7 0 -13 -7 -13 -15 0 -8 -4 -15
-9 -15 -5 0 -19 -11 -32 -25 -13 -13 -28 -25 -33 -25 -4 0 -17 -11 -28 -25
-11 -14 -26 -25 -34 -25 -8 0 -12 -5 -9 -10 3 -6 -1 -13 -11 -17 -9 -3 -33
-24 -52 -45 -19 -21 -38 -38 -42 -38 -7 0 -83 -76 -398 -397 -23 -23 -39 -43
-35 -43 5 -1 -3 -7 -17 -15 -14 -8 -21 -14 -16 -15 5 0 -7 -16 -27 -35 -21
-20 -37 -38 -37 -41 0 -3 -10 -15 -22 -28 -13 -13 -34 -38 -48 -57 -14 -18
-35 -43 -47 -56 -13 -13 -23 -27 -23 -31 0 -7 -41 -56 -94 -114 -9 -10 -13
-18 -10 -18 3 0 -1 -6 -8 -13 -7 -8 -31 -39 -52 -70 -22 -32 -43 -57 -48 -57
-4 0 -8 -6 -8 -13 0 -7 -10 -23 -23 -37 -13 -14 -24 -29 -25 -33 -1 -9 -52
-83 -72 -106 -8 -10 -24 -33 -34 -52 -10 -19 -43 -72 -73 -119 -99 -154 -196
-327 -314 -560 -35 -69 -66 -127 -69 -130 -3 -3 -5 -9 -5 -15 0 -5 -12 -35
-26 -65 -25 -54 -72 -160 -102 -230 -30 -71 -89 -227 -113 -300 -14 -41 -29
-84 -34 -95 -4 -11 -16 -45 -26 -75 -9 -30 -20 -64 -25 -75 -4 -11 -17 -54
-29 -95 -12 -41 -30 -104 -40 -140 -10 -36 -26 -96 -35 -135 -36 -154 -86
-381 -88 -397 -1 -10 -5 -18 -10 -18 -4 0 -6 -4 -3 -8 3 -5 -2 -49 -10 -98 -8
-49 -17 -105 -19 -124 -3 -19 -10 -60 -15 -90 -6 -30 -12 -73 -14 -95 -2 -22
-7 -74 -11 -115 -16 -148 -26 -276 -32 -385 -6 -126 -6 -531 1 -645 16 -294
21 -348 30 -405 3 -16 8 -55 10 -85 3 -30 10 -89 16 -130 6 -41 11 -85 11 -97
0 -12 4 -25 10 -28 5 -4 7 -16 4 -26 -4 -11 -1 -26 5 -34 6 -8 9 -19 5 -25 -4
-6 -1 -17 5 -25 7 -8 10 -21 7 -29 -3 -8 1 -40 9 -73 8 -32 16 -69 19 -83 7
-40 13 -65 15 -65 1 0 3 -9 5 -20 9 -63 18 -102 26 -116 4 -9 6 -19 2 -22 -3
-4 -1 -13 5 -20 7 -8 10 -16 7 -18 -2 -3 3 -27 11 -54 9 -28 17 -61 20 -75 3
-14 7 -32 11 -40 6 -15 11 -32 16 -57 2 -7 6 -16 10 -19 4 -4 7 -20 7 -35 0
-15 4 -30 9 -33 5 -3 12 -23 16 -43 4 -21 10 -42 13 -48 4 -5 7 -13 8 -17 1
-5 3 -11 4 -15 1 -5 3 -12 4 -18 8 -40 32 -105 38 -105 4 0 8 -11 8 -25 0 -14
4 -25 10 -25 5 0 7 -6 4 -14 -3 -8 -1 -17 5 -21 6 -3 11 -13 11 -21 0 -8 7
-31 17 -52 9 -20 15 -41 14 -46 -1 -5 5 -16 12 -25 8 -9 14 -23 14 -31 0 -8 8
-33 17 -55 9 -22 17 -42 17 -45 1 -3 7 -16 14 -30 8 -14 21 -46 31 -73 9 -26
21 -47 25 -47 5 0 9 -8 9 -18 0 -10 7 -28 16 -40 8 -12 17 -32 19 -43 3 -12
11 -29 20 -39 8 -9 15 -22 15 -30 0 -7 9 -27 19 -44 11 -17 20 -35 20 -41 2
-22 13 -45 21 -45 7 0 23 -32 25 -51 0 -3 14 -27 30 -53 17 -26 29 -50 27 -52
-4 -7 29 -66 64 -115 19 -26 34 -52 34 -59 0 -11 96 -178 109 -190 3 -3 15
-22 25 -42 11 -21 23 -38 28 -38 4 0 8 -4 8 -10 0 -15 101 -170 111 -170 5 0
18 -19 30 -43 12 -23 39 -64 61 -92 21 -27 64 -85 95 -127 30 -43 59 -78 64
-78 5 0 9 -5 9 -11 0 -25 254 -323 419 -492 361 -369 610 -586 956 -834 685
-490 1520 -875 2290 -1057 212 -50 363 -83 410 -90 22 -4 94 -15 160 -26 177
-28 373 -50 575 -65 52 -4 113 -9 135 -11 49 -4 576 -4 665 0 233 11 587 50
785 85 61 10 126 21 145 24 19 3 67 12 105 22 67 16 88 20 138 29 12 2 42 9
67 16 25 7 53 14 64 16 56 11 501 143 551 164 19 8 54 21 65 25 3 1 19 5 35
10 31 8 385 149 414 165 9 5 48 23 86 40 111 50 296 142 337 167 21 13 42 23
48 23 5 0 41 20 80 45 39 25 75 45 81 45 14 0 430 259 444 276 6 7 42 33 80
59 105 69 198 137 281 205 17 14 46 36 63 50 57 44 127 102 186 155 22 19 55
48 73 63 82 68 437 416 509 500 15 18 48 54 72 80 23 26 86 101 139 167 53 66
99 122 102 125 23 20 195 258 277 380 204 305 294 460 450 775 166 332 248
531 362 875 38 114 46 138 94 300 39 130 133 556 161 730 36 219 58 413 71
620 4 58 9 119 11 135 4 37 4 565 0 655 -11 233 -50 587 -85 785 -10 61 -21
126 -24 145 -3 19 -21 107 -42 195 -20 88 -38 168 -40 178 -2 10 -23 84 -46
165 -134 474 -266 814 -479 1237 -94 185 -140 268 -152 273 -4 2 -8 10 -8 18
0 14 -25 57 -173 294 -50 80 -98 152 -107 160 -8 8 -21 26 -28 40 -16 32 -226
317 -267 364 -5 6 -28 34 -50 61 -173 219 -515 575 -754 785 -41 36 -79 70
-85 75 -147 132 -581 458 -696 521 -19 10 -37 21 -40 24 -3 3 -12 10 -21 15
-9 6 -34 22 -55 36 -21 14 -59 37 -84 50 -24 13 -50 30 -58 37 -7 6 -17 12
-22 12 -5 0 -28 13 -52 28 -24 16 -65 39 -93 53 -27 13 -52 27 -55 31 -3 4
-46 26 -95 49 -50 23 -91 46 -93 51 -2 4 -10 8 -17 8 -8 0 -38 13 -68 30 -30
16 -57 27 -61 23 -3 -3 -6 -1 -6 5 0 7 -9 12 -19 12 -11 0 -21 5 -23 11 -2 5
-10 11 -18 13 -8 1 -25 7 -36 14 -12 6 -24 8 -28 5 -3 -3 -6 -1 -6 5 0 7 -3
11 -7 10 -5 -2 -29 8 -55 21 -27 12 -54 24 -60 25 -7 1 -29 9 -48 18 -41 19
-71 30 -86 33 -10 3 -55 21 -109 46 -11 5 -31 11 -44 14 -12 2 -29 9 -35 15
-7 5 -15 7 -19 4 -3 -3 -16 0 -29 7 -12 7 -27 12 -32 11 -4 -2 -14 2 -21 8 -7
6 -26 13 -42 16 -15 3 -32 9 -37 15 -6 5 -19 9 -31 9 -12 0 -25 4 -31 9 -5 6
-25 12 -44 16 -19 3 -46 10 -60 15 -14 5 -54 17 -90 25 -36 9 -70 21 -75 25
-6 5 -31 11 -57 14 -25 3 -52 8 -59 11 -21 8 -360 85 -389 89 -14 2 -41 7 -60
11 -38 9 -58 12 -105 18 -16 3 -79 11 -140 20 -60 9 -130 19 -155 22 -25 2
-61 7 -80 10 -19 4 -57 8 -85 9 -27 2 -86 7 -130 11 -164 15 -719 28 -730 17z
m1511 -3612 l229 -850 537 -2 537 -3 -118 -205 c-99 -172 -252 -439 -560 -974
-28 -49 -51 -93 -51 -98 0 -8 957 -3591 1010 -3780 l18 -68 -536 0 -537 0
-345 1285 c-190 707 -347 1285 -350 1285 -3 0 -68 -110 -144 -243 -134 -233
-285 -494 -556 -962 -150 -259 -413 -715 -603 -1045 -75 -129 -147 -254 -161
-277 l-26 -43 -595 0 c-327 0 -595 2 -595 5 0 3 518 903 1151 2000 l1151 1994
-183 685 c-101 377 -186 686 -189 686 -3 0 -49 -76 -102 -168 -53 -92 -186
-322 -296 -512 -109 -190 -301 -523 -427 -740 -125 -217 -310 -537 -410 -710
-100 -173 -294 -508 -430 -745 -137 -236 -337 -583 -445 -770 -108 -187 -376
-652 -596 -1032 l-399 -693 -597 0 c-329 0 -598 2 -598 3 0 4 3902 6765 3926
6805 l14 22 523 0 523 0 230 -850z"/>
</g>
</svg>
